<svg width="24" height="29" viewBox="0 0 24 29" fill="none" xmlns="http://www.w3.org/2000/svg">
<g clip-path="url(#clip0_133_741)">
<path d="M0.975815 19.6223C0.717014 19.6223 0.468807 19.5192 0.285807 19.3355C0.102806 19.1518 9.36347e-08 18.9026 9.36347e-08 18.6428V7.39436C-7.76797e-05 7.21625 0.048295 7.04143 0.139902 6.8889C0.231508 6.73638 0.362884 6.61192 0.519824 6.52885L12.6062 0.10624C12.7676 0.0204932 12.9497 -0.0179614 13.1318 -0.00498108C13.3139 0.00799924 13.4888 0.0720035 13.6365 0.179777L21.457 5.88837C21.5909 5.98612 21.6978 6.11637 21.7677 6.26704C21.8376 6.41772 21.8681 6.58382 21.8564 6.74961C21.8447 6.9154 21.7912 7.07548 21.7009 7.21479C21.6106 7.35409 21.4865 7.46798 21.3403 7.54586L5.94357 15.7448C5.7948 15.8236 5.62829 15.8624 5.46015 15.8577C5.29201 15.853 5.12793 15.8048 4.98379 15.7178C4.83965 15.6308 4.72031 15.5078 4.63735 15.3609C4.55438 15.2141 4.5106 15.0481 4.51021 14.8793V9.87998C4.51038 9.69917 4.56032 9.52192 4.65452 9.36781C4.74872 9.2137 4.88351 9.08874 5.04402 9.00669L12.3587 5.27749C12.5897 5.16003 12.8576 5.13942 13.1037 5.22028C13.3497 5.30115 13.5537 5.47682 13.6707 5.70865C13.7877 5.94047 13.8082 6.20954 13.7276 6.45653C13.6471 6.70352 13.4721 6.90814 13.2412 7.0256L6.45717 10.4814V13.2482L19.04 6.54761L12.9704 2.12012L1.94073 7.98174V18.6318C1.94216 18.7605 1.91834 18.8882 1.87062 19.0076C1.82291 19.127 1.75223 19.2357 1.66263 19.3277C1.57303 19.4197 1.46625 19.493 1.3484 19.5436C1.23056 19.5941 1.10396 19.6209 0.975815 19.6223V19.6223Z" fill="white"/>
<path d="M10.9379 28.5195C10.7315 28.5197 10.5304 28.454 10.3636 28.3319L2.5431 22.6235C2.40957 22.5255 2.30298 22.395 2.23335 22.2444C2.16373 22.0938 2.13335 21.9279 2.14501 21.7623C2.15668 21.5966 2.21004 21.4367 2.30007 21.2974C2.39011 21.1581 2.51389 21.044 2.65982 20.9659L18.0565 12.7669C18.2053 12.6881 18.3718 12.6493 18.5399 12.654C18.708 12.6588 18.8721 12.707 19.0163 12.7941C19.1604 12.8811 19.2797 13.0039 19.3627 13.1508C19.4457 13.2977 19.4894 13.4636 19.4898 13.6324V18.6317C19.49 18.8126 19.4402 18.99 19.346 19.1442C19.2517 19.2984 19.1168 19.4233 18.956 19.505L11.6413 23.2342C11.4104 23.3517 11.1424 23.3723 10.8964 23.2914C10.6503 23.2106 10.4464 23.0349 10.3294 22.8031C10.2123 22.5713 10.1919 22.3023 10.2724 22.0553C10.353 21.8084 10.5279 21.6036 10.7589 21.4861L17.5429 18.0303V15.2651L4.96007 21.9641L11.0297 26.3916L22.0578 20.53V9.8799C22.0578 9.62011 22.1606 9.37095 22.3436 9.18725C22.5266 9.00355 22.7748 8.90027 23.0336 8.90027C23.2924 8.90027 23.5406 9.00355 23.7236 9.18725C23.9066 9.37095 24.0094 9.62011 24.0094 9.8799V21.1284C24.0095 21.3063 23.9613 21.4809 23.87 21.6333C23.7786 21.7858 23.6477 21.9104 23.4911 21.9939L11.4048 28.4163C11.2601 28.489 11.0996 28.5245 10.9379 28.5195V28.5195Z" fill="white"/>
</g>
<defs>
<clipPath id="clip0_133_741">
<rect width="24" height="28.5195" fill="white"/>
</clipPath>
</defs>
</svg>
