<svg width="155" height="183" viewBox="0 0 155 183" fill="none" xmlns="http://www.w3.org/2000/svg">
<g clip-path="url(#clip0_133_729)">
<path d="M6.76148 125.909C5.10084 125.909 3.50818 125.248 2.33393 124.069C1.15967 122.89 0.500001 121.291 0.500001 119.624V47.447C0.499502 46.3041 0.809893 45.1824 1.3977 44.2036C1.98551 43.2249 2.82851 42.4263 3.83554 41.8933L81.3897 0.681575C82.4252 0.131366 83.5936 -0.115384 84.7623 -0.0320942C85.931 0.0511961 87.0531 0.46189 88.0008 1.15344L138.182 37.7836C139.042 38.4108 139.728 39.2465 140.176 40.2134C140.624 41.1802 140.82 42.246 140.745 43.3098C140.67 44.3736 140.327 45.4008 139.748 46.2947C139.168 47.1886 138.372 47.9194 137.433 48.4191L38.6379 101.029C37.6833 101.534 36.6149 101.784 35.536 101.753C34.4571 101.723 33.4042 101.414 32.4793 100.856C31.5544 100.297 30.7887 99.5083 30.2563 98.5658C29.7239 97.6233 29.443 96.5587 29.4405 95.4752V63.3963C29.4416 62.2361 29.762 61.0988 30.3665 60.1099C30.971 59.1211 31.8359 58.3192 32.8658 57.7927L79.8018 33.8638C81.2836 33.11 83.0031 32.9778 84.5819 33.4966C86.1607 34.0155 87.4696 35.1428 88.2205 36.6303C88.9713 38.1179 89.1026 39.8444 88.5857 41.4292C88.0688 43.0141 86.9461 44.3271 85.4642 45.0808L41.9335 67.2554V85.0091L122.673 42.0137L83.7266 13.604L12.953 51.216V119.554C12.9622 120.379 12.8093 121.199 12.5032 121.965C12.197 122.731 11.7435 123.429 11.1686 124.019C10.5936 124.609 9.90845 125.08 9.15226 125.404C8.39608 125.729 7.58376 125.9 6.76148 125.909Z" fill="white"/>
<path d="M70.6843 183C69.36 183.001 68.0695 182.58 66.9994 181.797L16.8179 145.167C15.9611 144.539 15.2771 143.701 14.8303 142.735C14.3836 141.768 14.1886 140.704 14.2635 139.641C14.3383 138.578 14.6807 137.552 15.2585 136.658C15.8362 135.764 16.6304 135.033 17.5668 134.531L116.362 81.9211C117.317 81.4156 118.385 81.1663 119.464 81.1967C120.543 81.2271 121.596 81.5369 122.521 82.0954C123.446 82.6539 124.211 83.4417 124.744 84.3842C125.276 85.3267 125.557 86.3913 125.559 87.4748V119.554C125.561 120.714 125.241 121.853 124.636 122.842C124.032 123.831 123.166 124.633 122.134 125.157L75.1982 149.086C73.7163 149.84 71.9969 149.972 70.4181 149.453C68.8393 148.935 67.5306 147.807 66.7798 146.32C66.0289 144.832 65.8974 143.107 66.4143 141.522C66.9312 139.937 68.0539 138.623 69.5358 137.869L113.066 115.695V97.9508L32.3267 140.936L71.2736 169.346L142.037 131.734V63.3961C142.037 61.7291 142.697 60.1303 143.871 58.9515C145.045 57.7728 146.638 57.1101 148.298 57.1101C149.959 57.1101 151.552 57.7728 152.726 58.9515C153.9 60.1303 154.56 61.7291 154.56 63.3961V135.574C154.56 136.715 154.251 137.836 153.665 138.814C153.079 139.792 152.239 140.592 151.234 141.127L73.6803 182.338C72.7517 182.804 71.7222 183.032 70.6843 183Z" fill="white"/>
</g>
<defs>
<clipPath id="clip0_133_729">
<rect width="154" height="183" fill="white" transform="translate(0.5)"/>
</clipPath>
</defs>
</svg>
