<svg width="134" height="185" viewBox="0 0 134 185" fill="none" xmlns="http://www.w3.org/2000/svg">
<g clip-path="url(#clip0_125_50)">
<path d="M6.10831 39.1101C12.1583 39.3248 35.3117 40.8566 38.0786 47.4847C40.8455 54.1128 39.1825 94.2823 41.419 94.4111C42.2362 94.4111 42.2935 95.0983 49.6625 84.3902C52.8749 80.007 55.6367 75.3117 57.9059 70.3753C56.3289 65.7943 49.132 57.2766 51.2395 55.344C54.3824 52.4942 58.0588 50.2934 62.0571 48.8684C66.0554 47.4434 70.2965 46.8223 74.5362 47.0409C87.8261 47.5563 80.7152 75.1138 92.5571 90.9181C94.4065 93.4806 96.1126 83.8892 98.091 67.0398C100.069 50.1904 93.618 46.0961 92.3564 43.1328C97.4889 40.2697 109.861 38.6806 115.524 38.1653C121.187 37.6499 128.026 38.8811 127.624 44.4928C127.223 50.1045 120.456 94.5972 113.904 104.733C107.352 114.868 77.3748 118.232 75.6975 114.754C74.0201 111.275 65.7193 93.4234 64.6584 93.6381C63.5975 93.8528 57.6909 115.67 53.476 116.386C49.2611 117.101 17.6348 112.678 15.341 103.401C13.0472 94.1248 11.2408 63.7043 10.8393 62.1725C10.4379 60.6407 5.70689 59.0088 4.51696 53.712C3.32704 48.4152 0.932849 38.9383 6.10831 39.1101Z" fill="white"/>
<path d="M20.0997 119.607C24.7161 119.793 42.4073 121.038 44.4717 126.764C46.5362 132.491 45.3032 166.347 47.0093 166.433C47.6401 166.433 47.6831 167.005 53.303 157.915C55.7844 154.184 57.8924 150.219 59.5967 146.076C58.3924 142.196 52.9016 135.01 54.5072 133.364C56.817 131.023 59.5959 129.196 62.6619 128.002C65.7278 126.808 69.0118 126.274 72.2988 126.435C82.4347 126.864 77.0155 150.156 86.0474 163.527C87.4811 165.688 88.7714 157.571 90.3484 143.342C91.9254 129.112 86.9076 126.779 85.8897 124.345C89.8179 121.94 99.2513 120.58 103.581 120.15C107.911 119.721 113.115 120.752 112.814 125.505C112.513 130.257 107.366 166.662 102.334 175.194C97.3016 183.726 74.4636 186.646 73.1733 183.611C71.883 180.576 65.5463 165.531 64.8008 165.703C64.0553 165.874 59.482 184.313 56.1989 184.943C52.9159 185.573 28.7876 181.808 27.0816 173.948C25.3755 166.089 23.9706 140.407 23.7269 139.104C23.4831 137.802 19.7987 136.427 18.8955 131.947C17.9923 127.466 16.1572 119.463 20.0997 119.607Z" fill="white"/>
<path d="M90.2337 20.0131C91.4666 15.06 94.1045 2.94899 89.0868 0.314927C59.2382 -1.76083 38.393 6.97166 40.3428 10.8941C41.7318 13.7341 42.3498 16.8885 42.1348 20.0418C17.4331 20.7146 -0.0286865 22.3609 -0.0286865 24.3364C-0.0286865 24.3364 -0.0286846 28.9031 0.0573342 28.989C1.84939 31.394 30.9811 33.2837 66.6502 33.2837C101.961 33.2837 130.863 31.394 133.186 28.989C133.286 28.8888 133.343 24.3651 133.343 24.2649C133.372 22.3323 115.437 20.6573 90.2337 20.0131ZM80.7573 19.8414C76.227 19.7698 71.5103 19.7268 66.6789 19.7268C61.0733 19.7268 55.6111 19.7268 50.407 19.87C48.7009 16.5917 48.9733 10.8512 50.0916 10.0352C53.8047 7.40113 76.9008 5.99821 81.2017 6.75693C84.6855 7.35818 81.9329 15.3892 80.7573 19.8414Z" fill="white"/>
</g>
<defs>
<clipPath id="clip0_125_50">
<rect width="133.372" height="185" fill="white"/>
</clipPath>
</defs>
</svg>
