<svg width="616" height="130" viewBox="0 0 616 130" fill="none" xmlns="http://www.w3.org/2000/svg">
<path d="M119.593 10.5239H3.40728C1.52549 10.5239 0 12.0389 0 13.9078V22.2011C0 24.07 1.52549 25.585 3.40728 25.585H119.593C121.475 25.585 123 24.07 123 22.2011V13.9078C123 12.0389 121.475 10.5239 119.593 10.5239Z" fill="#66B541"/>
<path d="M69.8465 0H50.3398C48.458 0 46.9325 1.51501 46.9325 3.38387V11.6772C46.9325 13.546 48.458 15.0611 50.3398 15.0611H69.8465C71.7283 15.0611 73.2537 13.546 73.2537 11.6772V3.38387C73.2537 1.51501 71.7283 0 69.8465 0Z" fill="#66B541"/>
<path d="M112.514 28.9292H10.4831C9.57942 28.9292 8.71277 29.2857 8.07378 29.9203C7.43479 30.5549 7.07581 31.4156 7.07581 32.3131L15.594 126.616C15.594 127.513 15.953 128.374 16.592 129.009C17.231 129.643 18.0976 130 19.0013 130H103.996C104.9 130 105.766 129.643 106.405 129.009C107.044 128.374 107.403 127.513 107.403 126.616L115.921 32.3131C115.921 31.4156 115.562 30.5549 114.923 29.9203C114.284 29.2857 113.418 28.9292 112.514 28.9292V28.9292ZM36.2535 115.238C36.2535 116.135 35.8945 116.996 35.2555 117.63C34.6165 118.265 33.7499 118.622 32.8462 118.622H27.193C26.2893 118.622 25.4226 118.265 24.7836 117.63C24.1447 116.996 23.7857 116.135 23.7857 115.238V40.3441C23.7857 39.4467 24.1447 38.586 24.7836 37.9514C25.4226 37.3168 26.2893 36.9603 27.193 36.9603H32.8462C33.7499 36.9603 34.6165 37.3168 35.2555 37.9514C35.8945 38.586 36.2535 39.4467 36.2535 40.3441V115.238ZM67.4869 115.238C67.4869 116.135 67.1279 116.996 66.4889 117.63C65.8499 118.265 64.9833 118.622 64.0796 118.622H58.4264C57.5227 118.622 56.656 118.265 56.0171 117.63C55.3781 116.996 55.0191 116.135 55.0191 115.238V40.3441C55.0191 39.4467 55.3781 38.586 56.0171 37.9514C56.656 37.3168 57.5227 36.9603 58.4264 36.9603H64.0796C64.9833 36.9603 65.8499 37.3168 66.4889 37.9514C67.1279 38.586 67.4869 39.4467 67.4869 40.3441V115.238ZM98.7203 115.238C98.7203 116.135 98.3613 116.996 97.7223 117.63C97.0833 118.265 96.2167 118.622 95.313 118.622H89.6598C88.7561 118.622 87.8894 118.265 87.2505 117.63C86.6115 116.996 86.2525 116.135 86.2525 115.238V40.3441C86.2525 39.4467 86.6115 38.586 87.2505 37.9514C87.8894 37.3168 88.7561 36.9603 89.6598 36.9603H95.313C96.2167 36.9603 97.0833 37.3168 97.7223 37.9514C98.3613 38.586 98.7203 39.4467 98.7203 40.3441V115.238Z" fill="#66B541"/>
<path d="M209.668 60.2H164.332C163.596 60.2 163 60.7157 163 61.352V68.648C163 69.2842 163.596 69.8 164.332 69.8H209.668C210.404 69.8 211 69.2842 211 68.648V61.352C211 60.7157 210.404 60.2 209.668 60.2Z" fill="#66B541"/>
<path d="M182.2 42.3323L182.2 87.6677C182.2 88.4035 182.716 89 183.352 89L190.648 89C191.284 89 191.8 88.4035 191.8 87.6677L191.8 42.3323C191.8 41.5965 191.284 41 190.648 41L183.352 41C182.716 41 182.2 41.5965 182.2 42.3323Z" fill="#66B541"/>
<g clip-path="url(#clip0_133_149)">
<path d="M251 18H276.466L285.549 55.955L291.957 84.605H292.669L300.143 55.955L310.836 18H334.877L345.739 55.955L353.392 84.605H354.104L360.517 55.955L369.6 18H394.015L368.18 112H340.577L329.177 72.25L322.59 47.9H322.057L315.644 72.25L304.244 112H277.159L251 18Z" fill="#66B541"/>
</g>
<path d="M480.668 53H435.332C434.596 53 434 53.5158 434 54.152V61.448C434 62.0842 434.596 62.6 435.332 62.6H480.668C481.404 62.6 482 62.0842 482 61.448V54.152C482 53.5158 481.404 53 480.668 53Z" fill="#66B541"/>
<path d="M480.668 67.3999H435.332C434.596 67.3999 434 67.9157 434 68.5519V75.8479C434 76.4841 434.596 76.9999 435.332 76.9999H480.668C481.404 76.9999 482 76.4841 482 75.8479V68.5519C482 67.9157 481.404 67.3999 480.668 67.3999Z" fill="#66B541"/>
<g clip-path="url(#clip1_133_149)">
<path d="M526.26 27.705C530.48 27.855 546.63 28.925 548.56 33.555C550.49 38.185 549.33 66.245 550.89 66.335C551.46 66.335 551.5 66.815 556.64 59.335C558.881 56.2732 560.807 52.9933 562.39 49.545C561.29 46.345 556.27 40.395 557.74 39.045C559.932 37.0543 562.497 35.517 565.286 34.5216C568.074 33.5262 571.033 33.0923 573.99 33.245C583.26 33.605 578.3 52.855 586.56 63.895C587.85 65.685 589.04 58.985 590.42 47.215C591.8 35.445 587.3 32.585 586.42 30.515C590 28.515 598.63 27.405 602.58 27.045C606.53 26.685 611.3 27.545 611.02 31.465C610.74 35.385 606.02 66.465 601.45 73.545C596.88 80.625 575.97 82.975 574.8 80.545C573.63 78.115 567.84 65.645 567.1 65.795C566.36 65.945 562.24 81.185 559.3 81.685C556.36 82.185 534.3 79.095 532.7 72.615C531.1 66.135 529.84 44.885 529.56 43.815C529.28 42.745 525.98 41.605 525.15 37.905C524.32 34.205 522.65 27.585 526.26 27.705Z" fill="#66B541"/>
<path d="M536.02 83.9349C539.24 84.0649 551.58 84.9349 553.02 88.9349C554.46 92.9349 553.6 116.585 554.79 116.645C555.23 116.645 555.26 117.045 559.18 110.695C560.911 108.089 562.381 105.319 563.57 102.425C562.73 99.7149 558.9 94.6949 560.02 93.5449C561.631 91.9098 563.569 90.6334 565.708 89.7994C567.847 88.9653 570.137 88.5923 572.43 88.7049C579.5 89.0049 575.72 105.275 582.02 114.615C583.02 116.125 583.92 110.455 585.02 100.515C586.12 90.5749 582.62 88.9449 581.91 87.2449C584.65 85.5649 591.23 84.6149 594.25 84.3149C597.27 84.0149 600.9 84.7349 600.69 88.0549C600.48 91.3749 596.89 116.805 593.38 122.765C589.87 128.725 573.94 130.765 573.04 128.645C572.14 126.525 567.72 116.015 567.2 116.135C566.68 116.255 563.49 129.135 561.2 129.575C558.91 130.015 542.08 127.385 540.89 121.895C539.7 116.405 538.72 98.4649 538.55 97.5549C538.38 96.6449 535.81 95.6849 535.18 92.5549C534.55 89.4249 533.27 83.8349 536.02 83.9349Z" fill="#66B541"/>
<path d="M584.94 14.3649C585.8 10.9049 587.64 2.44494 584.14 0.604944C563.32 -0.845056 548.78 5.25494 550.14 7.99494C551.109 9.97879 551.54 12.1822 551.39 14.3849C534.16 14.8549 521.98 16.0049 521.98 17.3849C521.98 17.3849 521.98 20.5749 522.04 20.6349C523.29 22.3149 543.61 23.6349 568.49 23.6349C593.12 23.6349 613.28 22.3149 614.9 20.6349C614.97 20.5649 615.01 17.4049 615.01 17.3349C615.03 15.9849 602.52 14.8149 584.94 14.3649ZM578.33 14.2449C575.17 14.1949 571.88 14.1649 568.51 14.1649C564.6 14.1649 560.79 14.1649 557.16 14.2649C555.97 11.9749 556.16 7.96495 556.94 7.39495C559.53 5.55495 575.64 4.57494 578.64 5.10494C581.07 5.52494 579.15 11.1349 578.33 14.2449Z" fill="#66B541"/>
</g>
<defs>
<clipPath id="clip0_133_149">
<rect width="143" height="94" fill="white" transform="translate(251 18)"/>
</clipPath>
<clipPath id="clip1_133_149">
<rect width="93.03" height="129.23" fill="white" transform="translate(522 0.38501)"/>
</clipPath>
</defs>
</svg>
